<?xml version="1.0" encoding="UTF-8" standalone="no"?>
<svg width="1200" height="400" viewBox="0 0 1200 400" xmlns="http://www.w3.org/2000/svg">
  <!-- Background gradient -->
  <defs>
    <linearGradient id="bgGradient" x1="0%" y1="0%" x2="100%" y2="100%">
      <stop offset="0%" stop-color="#3b82f6" stop-opacity="0.2"/>
      <stop offset="100%" stop-color="#60a5fa" stop-opacity="0.4"/>
    </linearGradient>
  </defs>
  
  <!-- Background -->
  <rect width="1200" height="400" fill="url(#bgGradient)"/>
  
  <!-- Mountain silhouettes -->
  <path d="M0,400 L250,180 L350,250 L500,100 L650,220 L800,120 L950,250 L1050,180 L1200,250 L1200,400 Z" fill="#475569" opacity="0.5"/>
  <path d="M0,400 L150,280 L300,320 L450,220 L600,300 L750,200 L900,320 L1050,250 L1200,300 L1200,400 Z" fill="#334155" opacity="0.6"/>
  
  <!-- Sun/moon -->
  <circle cx="900" cy="100" r="50" fill="#fef3c7" opacity="0.7"/>
  
  <!-- Cloud shapes -->
  <circle cx="200" cy="150" r="30" fill="white" opacity="0.4"/>
  <circle cx="230" cy="140" r="40" fill="white" opacity="0.4"/>
  <circle cx="270" cy="150" r="30" fill="white" opacity="0.4"/>
  
  <circle cx="600" cy="100" r="25" fill="white" opacity="0.3"/>
  <circle cx="630" cy="90" r="35" fill="white" opacity="0.3"/>
  <circle cx="660" cy="100" r="25" fill="white" opacity="0.3"/>
</svg>
